<?xml version="1.0" encoding="UTF-8" standalone="no"?>
<svg width="254px" height="200px" viewBox="0 0 254 200" version="1.1" xmlns="http://www.w3.org/2000/svg" xmlns:xlink="http://www.w3.org/1999/xlink" xmlns:sketch="http://www.bohemiancoding.com/sketch/ns">
    <!-- Generator: Sketch 3.3 (11970) - http://www.bohemiancoding.com/sketch -->
    <title>Slice 1</title>
    <desc>Created with Sketch.</desc>
    <defs></defs>
    <g id="Page-1" stroke="none" stroke-width="1" fill="none" fill-rule="evenodd" sketch:type="MSPage">
        <g id="noun_96688_cc" sketch:type="MSLayerGroup" fill="#010101">
            <g id="surface1" transform="translate(0.150685, 0.000000)" sketch:type="MSShapeGroup">
                <path d="M200.721961,65.9264241 L188.571384,79.2985571 L182.970943,85.4617277 L175.457139,81.8642216 L170.848297,79.6471519 L160.611087,89.5751582 L153.334708,96.630734 L145.597441,90.0631931 L131.659194,78.2248795 L83.6015607,197.890823 L253.709655,197.890823 L200.721961,65.9264241 Z" id="Shape"></path>
                <path d="M168.432149,66.2192436 L180.065977,71.7967752 L195.861729,54.408823 L176.211311,5.46598101 C174.940391,2.30073091 171.853863,0.223101266 168.432149,0.223101266 C165.010435,0.223101266 161.923907,2.30073091 160.652987,5.47992395 L135.821114,67.306864 L152.608466,81.5574556 L168.432149,66.2192436 Z" id="Shape"></path>
                <path d="M94.6488112,91.3878542 L84.8445535,102.18038 L80.333476,107.144383 L74.272155,104.244066 L70.5431837,102.459256 L62.2891695,110.463012 L56.409408,116.166041 L50.166524,110.867386 L38.9237488,101.315861 L0.139660027,197.890823 L137.427226,197.890823 L94.6488112,91.3878542 Z" id="Shape"></path>
                <path d="M68.5879183,91.6388449 L77.9871575,96.1287597 L90.7382804,82.1012658 L74.8726982,42.5983988 C73.8392025,40.0466772 71.3671893,38.3594748 68.6018836,38.3594748 C65.8365778,38.3594748 63.3505993,40.0466772 62.3171037,42.5983988 L42.2756323,92.5033606 L55.8228266,104.007022 L68.5879183,91.6388449 Z" id="Shape"></path>
            </g>
        </g>
    </g>
</svg>