<?xml version="1.0" encoding="UTF-8" standalone="no"?>
<svg width="250px" height="50px" viewBox="0 0 1154 223" version="1.1" xmlns="http://www.w3.org/2000/svg" xmlns:xlink="http://www.w3.org/1999/xlink" xmlns:sketch="http://www.bohemiancoding.com/sketch/ns">
    <!-- Generator: Sketch 3.2.2 (9983) - http://www.bohemiancoding.com/sketch -->
    <title>Logo</title>
    <desc>Created with Sketch.</desc>
    <defs></defs>
    <g id="Page-1" stroke="none" stroke-width="1" fill="none" fill-rule="evenodd" sketch:type="MSPage">
        <g id="Logo" sketch:type="MSLayerGroup" fill="#FFFFFF">
            <g id="Mountain-2" transform="translate(152.761905, 0.000000)" sketch:type="MSShapeGroup">
                <path d="M321.4041,207.84161 L189.463905,3.37093516 C186.775071,-0.774285474 180.050357,-0.774285474 177.361524,3.37093516 L89.081908,139.645089 L62.369821,139.645092 L62.369821,207.84161 L7.8492619,207.841604 C3.83969048,207.841604 0.593095238,211.158856 0.593095238,215.255689 C0.593095238,219.352522 3.83969048,222.669773 7.8492619,222.669773 L432.736595,222.669773 C436.746167,222.669773 439.992762,219.352522 439.992762,215.255689 C439.992762,211.158856 436.740905,207.841604 432.736595,207.841604 L321.4041,207.84161 Z M224.718667,84.6516686 L208.322571,110.721934 L189.463905,80.7268813 C188.127381,78.6031949 185.827929,77.3182303 183.360095,77.3182303 C180.892262,77.3182303 178.59281,78.6031949 177.256286,80.7215048 L158.397619,110.716558 L142.059405,84.7323149 L183.417976,20.8980678 L224.718667,84.6516686 Z M62.3047144,142.91704 L104.365545,142.917043 L133.303595,98.2486375 L152.288548,128.442618 C153.625071,130.571681 155.924524,131.851269 158.392357,131.851269 C160.86019,131.851269 163.159643,130.571681 164.496167,128.442618 L183.354833,98.4475651 L202.2135,128.442618 C203.550024,130.571681 205.849476,131.851269 208.31731,131.851269 C210.785143,131.851269 213.084595,130.571681 214.421119,128.442618 L233.463952,98.1679912 L304.081844,207.841606 L62.3047143,207.841604 L62.3047144,142.91704 Z" id="Shape-2"></path>
            </g>
            <g id="House2" transform="translate(0.306548, 60.663158)" sketch:type="MSShapeGroup">
                <path d="M290.403571,89.8602787 C290.403571,94.8233339 286.252667,98.8375697 281.119952,98.8375697 L170.739,98.8375697 C168.12181,98.8375697 165.760238,97.7961141 164.069667,96.1005907 L91.2182381,23.3923941 L15.9122857,96.2100699 C14.2275238,97.8382215 11.9095238,98.8403768 9.34461905,98.8403768 C4.21480952,98.8403768 0.0639047619,94.8233339 0.0639047619,89.8630859 C0.0639047619,87.3843655 1.10380952,85.1414463 2.77985714,83.5217162 L84.7609524,4.25038442 C86.4428095,2.63065432 88.766619,1.62007747 91.328619,1.62007747 C93.9458095,1.62007747 96.3102857,2.66714737 97.9950476,4.35144211 L119.339238,25.6633848 L176.563048,25.6633848 L176.563048,0.690908211 L201.192524,0.690908211 L201.192524,25.6633848 L231.07381,25.6633848 C233.853667,25.6633848 236.354667,26.8508126 238.059762,28.7203798 L288.105905,83.9455971 C289.537952,85.5288341 290.403571,87.6061309 290.403571,89.8602787 L290.403571,89.8602787 Z M65.6156667,86.7415263 L85.8734762,86.7415263 L85.8734762,67.1531785 L65.6156667,67.1531785 L65.6156667,86.7415263 L65.6156667,86.7415263 Z M96.1592381,86.7415263 L116.414143,86.7415263 L116.414143,67.1531785 L96.1592381,67.1531785 L96.1592381,86.7415263 L96.1592381,86.7415263 Z M65.6156667,114.773805 L85.8734762,114.773805 L85.8734762,95.1854573 L65.6156667,95.1854573 L65.6156667,114.773805 L65.6156667,114.773805 Z M96.1592381,114.874863 L116.414143,114.874863 L116.414143,95.2837078 L96.1592381,95.2837078 L96.1592381,114.874863 L96.1592381,114.874863 Z" id="Shape"></path>
            </g>
            <path d="M453.28,89.16 C435.36,85.64 429.76,79.72 429.76,68.2 C429.76,57.64 438.24,48.36 456.8,48.36 C474.56,48.36 481.28,57.32 483.84,66.44 C485.12,69.8 488,71.08 490.88,71.08 C491.84,71.08 492.8,70.92 493.6,70.76 C496.8,70.12 499.52,67.72 499.52,64.36 C499.52,63.56 499.36,62.76 499.04,61.96 C495.52,50.44 485.6,35.08 456.8,35.08 C426.72,35.08 414.24,51.4 414.24,68.2 C414.24,89.16 425.12,98.28 449.12,103.24 L461.92,105.96 C480.8,109.8 488,115.56 488,128.68 C488,142.44 476.64,151.24 458.4,151.24 C435.04,151.24 428.750489,137.478514 421.748047,126.815428 C414.745605,116.152342 400.706299,120.215574 409.231689,133.73657 C417.75708,147.257567 428.638672,164.679991 459.2,164.68 C487.84,164.680009 503.68,149.16 503.68,128.52 C503.68,105.32 490.08,96.84 465.12,91.56 L453.28,89.16 Z M596.32,102.44 C596.32,82.76 586.08,71.24 567.04,71.24 C551.84,71.24 542.24,78.44 536.64,89.8 C536.8,86.76 537.28,85.16 537.28,83.08 L537.28,78.76 C537.28,74.6 534.4,72.52 530.24,72.52 C525.76,72.52 522.72,74.6 522.72,78.76 L522.72,156.68 C522.72,161 525.6,163.08 530.08,163.08 C534.24,163.08 537.28,161 537.28,156.68 L537.28,111.88 C537.28,105.64 538.88,101 542.88,95.56 C548.32,88.04 555.52,84.2 564.16,84.2 C576.16,84.2 581.6,91.88 581.6,105.48 L581.6,156.68 C581.6,161 584.64,163.08 588.96,163.08 C593.12,163.08 596.32,161 596.32,156.68 L596.32,102.44 Z M656,71.24 C630.08,71.24 614.56,89.96 614.56,117.64 C614.56,146.12 629.92,164.68 656.32,164.68 C681.28,164.68 696.64,145.48 696.64,117.64 C696.64,89.8 681.6,71.24 656,71.24 L656,71.24 Z M656.48,83.56 C672.8,83.56 681.92,97.32 681.92,117.48 C681.92,138.76 672.8,152.36 655.36,152.36 C638.88,152.36 629.28,138.44 629.28,118.12 C629.28,96.84 639.2,83.56 656.48,83.56 L656.48,83.56 Z M761.44,117.8 C764.32,107.24 766.08,96.84 768.16,84.68 C770.24,96.68 772.16,107.24 774.88,117.8 L784.96,156.68 C786.08,161.32 790.08,163.08 794.72,163.08 C798.88,163.08 802.4,161.32 803.84,156.68 L828.16,80.68 C828.32,80.04 828.48,79.24 828.48,78.76 C828.48,75.4 825.44,73.32 822.4,72.68 C821.76,72.52 820.96,72.52 820.32,72.52 C817.28,72.52 814.72,73.8 813.76,77.16 L802.08,117.8 C799.36,127.72 797.827145,132.959999 794.72,145.92 C791.453121,132.959999 790.56,127.4 788,117.8 L778.08,79.4 C776.8,74.6 772.8,72.52 768.16,72.52 C763.68,72.52 759.68,74.6 758.24,79.4 L747.84,117.8 C744.96,128.04 743.794922,133.920002 741.12,145.76 C738.041992,133.920002 736.8,128.04 734.08,117.8 L723.04,77.16 C722.08,73.64 719.52,72.52 716.64,72.52 C715.68,72.52 714.88,72.68 713.92,72.84 C710.88,73.48 708.16,75.4 708.16,78.76 C708.16,79.24 708.32,80.04 708.48,80.68 L731.52,156.68 C732.96,161.32 736.48,163.08 740.8,163.08 C745.28,163.08 749.28,161.48 750.56,156.68 L761.44,117.8 Z M902.4,162.12 C927.04,162.12 941.28,149.32 941.28,127.56 C941.28,110.28 932.96,99.72 916.64,96.36 C930.4,91.88 936.96,82.92 936.96,67.72 C936.96,48.52 923.68,37.48 900.64,37.48 L862.88,37.48 C851.52,37.48 846.72,42.44 846.72,54.76 L846.72,145 C846.72,157.16 851.52,162.12 862.88,162.12 L902.4,162.12 Z M861.6,90.12 L861.6,55.88 C861.6,52.68 863.2,50.76 866.24,50.76 L899.52,50.76 C914.08,50.76 921.6,57.16 921.6,69.64 C921.6,82.44 913.6,90.12 899.84,90.12 L861.6,90.12 Z M861.6,103.24 L900.32,103.24 C916.64,103.24 925.44,111.08 925.44,126.12 C925.44,140.84 916.8,148.84 900.64,148.84 L866.72,148.84 C863.2,148.84 861.6,147.08 861.6,143.56 L861.6,103.24 Z M1034.08,102.44 C1034.08,82.76 1023.84,71.24 1004.8,71.24 C989.6,71.24 980,78.44 974.4,89.8 C974.56,86.76 975.04,85.16 975.04,83.08 L975.04,78.76 C975.04,74.6 972.16,72.52 968,72.52 C963.52,72.52 960.48,74.6 960.48,78.76 L960.48,156.68 C960.48,161 963.36,163.08 967.84,163.08 C972,163.08 975.04,161 975.04,156.68 L975.04,111.88 C975.04,105.64 976.64,101 980.64,95.56 C986.08,88.04 993.28,84.2 1001.92,84.2 C1013.92,84.2 1019.36,91.88 1019.36,105.48 L1019.36,156.68 C1019.36,161 1022.4,163.08 1026.72,163.08 C1030.88,163.08 1034.08,161 1034.08,156.68 L1034.08,102.44 Z M1114.56,162.12 C1139.2,162.12 1153.44,149.32 1153.44,127.56 C1153.44,110.28 1145.12,99.72 1128.8,96.36 C1142.56,91.88 1149.12,82.92 1149.12,67.72 C1149.12,48.52 1135.84,37.48 1112.8,37.48 L1075.04,37.48 C1063.68,37.48 1058.88,42.44 1058.88,54.76 L1058.88,145 C1058.88,157.16 1063.68,162.12 1075.04,162.12 L1114.56,162.12 Z M1073.76,91.12 L1073.76,56.88 C1073.76,53.68 1075.36,51.76 1078.4,51.76 L1111.68,51.76 C1126.24,51.76 1133.76,58.16 1133.76,70.64 C1133.76,83.44 1125.76,91.12 1112,91.12 L1073.76,91.12 Z M1073.76,103.24 L1112.48,103.24 C1128.8,103.24 1137.6,111.08 1137.6,126.12 C1137.6,140.84 1128.96,148.84 1112.8,148.84 L1078.88,148.84 C1075.36,148.84 1073.76,147.08 1073.76,143.56 L1073.76,103.24 Z" id="SnowBnB" sketch:type="MSShapeGroup"></path>
        </g>
    </g>
</svg>